<svg width="553" height="496" viewBox="0 0 553 496" fill="none" xmlns="http://www.w3.org/2000/svg">
<mask id="mask0" style="mask-type:alpha" maskUnits="userSpaceOnUse" x="0" y="0" width="553" height="496">
<rect width="553" height="496" fill="#C4C4C4"/>
</mask>
<g mask="url(#mask0)">
<rect x="-6" width="559" height="496" fill="#98C45B"/>
<path opacity="0.07" d="M880.611 37.667L744.187 -83.7943L694.473 -128.056L611.232 -202.168L561.518 -246.429L414.689 -377.154L269.016 -247.458L219.302 -203.197L136.06 -129.085L-76.6689 60.3124L378.848 465.87L414.689 497.779L449.373 466.899L906.046 60.3124L880.611 37.667ZM414.689 -287.602L509.492 -203.197L414.689 -118.792L319.885 -203.197L414.689 -287.602ZM269.016 -157.906L414.689 -28.2103L560.362 -157.906L643.603 -83.7943L414.689 120.014L185.774 -83.7943L269.016 -157.906ZM23.9148 60.3124L134.904 -38.5036L377.692 177.656V376.318L23.9148 60.3124ZM449.373 377.347V178.686L694.473 -39.533L805.462 59.283L449.373 377.347Z" fill="white"/>
</g>
</svg>
